<?xml version="1.0" encoding="UTF-8"?>
<svg xmlns="http://www.w3.org/2000/svg" viewBox="0 0 64 64" width="64" height="64">
  <defs>
    <linearGradient id="g" x1="0" y1="0" x2="1" y2="1">
      <stop offset="0%" stop-color="#667eea"/>
      <stop offset="100%" stop-color="#764ba2"/>
    </linearGradient>
  </defs>
  <rect width="64" height="64" rx="14" fill="url(#g)"/>
  <path d="M20 42c2.8 2.2 6.2 3.3 10.2 3.3 6.7 0 10.3-2.7 10.3-6.6 0-10.2-19.5-4.9-19.5-16 0-5.5 4.7-8.7 11.6-8.7 3.8 0 7.1.8 9.8 2.3l-1.9 4.2c-2.4-1.3-5.2-2-8.1-2-4.6 0-7.3 1.8-7.3 4.8 0 8.7 19.5 3.7 19.5 16.1 0 6.1-5.3 10.6-14.4 10.6-4.7 0-8.9-1.1-11.9-3.3L20 42z" fill="#fff"/>
</svg>


