<svg xmlns="http://www.w3.org/2000/svg" viewBox="0 0 512 512" width="512" height="512" preserveAspectRatio="xMidYMid meet" style="width: 100%; height: 100%; transform: translate3d(0px, 0px, 0px);"><defs><clipPath id="__lottie_element_23"><rect width="512" height="512" x="0" y="0"></rect></clipPath><mask id="__lottie_element_26" mask-type="alpha"><g transform="matrix(0.8999999761581421,0,0,0.8999999761581421,254.8000030517578,264.422119140625)" opacity="1" style="display: block;"><g opacity="1" transform="matrix(1,0,0,1,0,0)"><path stroke-linecap="round" stroke-linejoin="round" fill-opacity="0" stroke="rgb(0,0,0)" stroke-opacity="1" stroke-width="11" d=" M0.007199999876320362,231.7259979248047 C31.387266159057617,231.7259979248047 184.61300659179688,117.26699829101562 223.33633422851562,-34.444000244140625 C254.4528045654297,-156.35400390625 182.06666564941406,-205.16172790527344 124.35393524169922,-212.72259521484375 C67.26333618164062,-220.4839324951172 10.630800247192383,-181.3274688720703 0.6670666933059692,-138.3979949951172 C-9.597466468811035,-181.2274627685547 -66.57599639892578,-219.92379760742188 -124.4272689819336,-212.80799865722656 C-181.9769287109375,-205.72039794921875 -254.41580200195312,-156.36300659179688 -223.33560180664062,-34.444000244140625 C-182.35752868652344,126.3030014038086 -32.561466217041016,231.7259979248047 0.007199999876320362,231.7259979248047z"></path><path fill="rgb(0,0,0)" fill-opacity="1" d=" M0.007199999876320362,231.7259979248047 C31.387266159057617,231.7259979248047 184.61300659179688,117.26699829101562 223.33633422851562,-34.444000244140625 C254.4528045654297,-156.35400390625 182.06666564941406,-205.16172790527344 124.35393524169922,-212.72259521484375 C67.26333618164062,-220.4839324951172 10.630800247192383,-181.3274688720703 0.6670666933059692,-138.3979949951172 C-9.597466468811035,-181.2274627685547 -66.57599639892578,-219.92379760742188 -124.4272689819336,-212.80799865722656 C-181.9769287109375,-205.72039794921875 -254.41580200195312,-156.36300659179688 -223.33560180664062,-34.444000244140625 C-182.35752868652344,126.3030014038086 -32.561466217041016,231.7259979248047 0.007199999876320362,231.7259979248047z"></path></g></g></mask><radialGradient id="__lottie_element_38" spreadMethod="pad" gradientUnits="userSpaceOnUse" cx="0.8199999928474426" cy="198.14500427246094" r="244.62712531423756" fx="0.8199999928474426" fy="198.14500427246094"><stop offset="0%" stop-color="rgb(0,0,0)" stop-opacity="0.10000000149011612"></stop><stop offset="50%" stop-color="rgb(0,0,0)" stop-opacity="0.05000000074505806"></stop><stop offset="100%" stop-color="rgb(0,0,0)" stop-opacity="0"></stop></radialGradient></defs><g clip-path="url(#__lottie_element_23)"><g transform="matrix(0.8999999761581421,0,0,0.8999999761581421,254.8000030517578,264.422119140625)" opacity="1" style="display: block;"><g opacity="1" transform="matrix(1,0,0,1,0,0)"><path stroke-linecap="round" stroke-linejoin="round" fill-opacity="0" stroke="rgb(0,0,0)" stroke-opacity="1" stroke-width="17" d=" M0.007199999876320362,231.7259979248047 C31.387266159057617,231.7259979248047 184.61300659179688,117.26699829101562 223.33633422851562,-34.444000244140625 C254.4528045654297,-156.35400390625 182.06666564941406,-205.16172790527344 124.35393524169922,-212.72259521484375 C67.26333618164062,-220.4839324951172 10.630800247192383,-181.3274688720703 0.6670666933059692,-138.3979949951172 C-9.597466468811035,-181.2274627685547 -66.57599639892578,-219.92379760742188 -124.4272689819336,-212.80799865722656 C-181.9769287109375,-205.72039794921875 -254.41580200195312,-156.36300659179688 -223.33560180664062,-34.444000244140625 C-182.35752868652344,126.3030014038086 -32.561466217041016,231.7259979248047 0.007199999876320362,231.7259979248047z"></path><path fill="url(#__lottie_element_38)" fill-opacity="1" d=" M0.007199999876320362,231.7259979248047 C31.387266159057617,231.7259979248047 184.61300659179688,117.26699829101562 223.33633422851562,-34.444000244140625 C254.4528045654297,-156.35400390625 182.06666564941406,-205.16172790527344 124.35393524169922,-212.72259521484375 C67.26333618164062,-220.4839324951172 10.630800247192383,-181.3274688720703 0.6670666933059692,-138.3979949951172 C-9.597466468811035,-181.2274627685547 -66.57599639892578,-219.92379760742188 -124.4272689819336,-212.80799865722656 C-181.9769287109375,-205.72039794921875 -254.41580200195312,-156.36300659179688 -223.33560180664062,-34.444000244140625 C-182.35752868652344,126.3030014038086 -32.561466217041016,231.7259979248047 0.007199999876320362,231.7259979248047z"></path></g></g><g transform="matrix(0.877794623374939,-0.0030640936456620693,0.0031415862031280994,0.8999944925308228,257.9657897949219,264.6069030761719)" opacity="1" style="display: block;"><g opacity="1" transform="matrix(1,0,0,1,0,0)"><path fill="rgb(0,0,0)" fill-opacity="1" d=" M149.29119873046875,-159.7270050048828 C158.56185913085938,-171.342529296875 145.84573364257812,-188.64205932617188 132.05279541015625,-182.8600616455078 C126.09793090820312,-180.28819274902344 107.88826751708984,-167.4566650390625 100.92273712158203,-156.04733276367188 C87.1044692993164,-160.24899291992188 71.96426391601562,-164.1493377685547 58.142799377441406,-164.5564727783203 C58.142799377441406,-164.5564727783203 54.551334381103516,-163.63772583007812 54.551334381103516,-163.63772583007812 C49.04633331298828,-162.3307342529297 48.23346710205078,-154.21800231933594 53.51826477050781,-151.76673889160156 C60.55220031738281,-148.14027404785156 81.41606903076172,-140.478271484375 87.91519927978516,-138.40280151367188 C82.2331314086914,-129.00733947753906 76.90333557128906,-119.28006744384766 72.55413055419922,-109.31626892089844 C55.484535217285156,-113.12053680419922 36.534934997558594,-114.76387023925781 19.872600555419922,-112.10266876220703 C17.438199996948242,-111.65013122558594 15.209600448608398,-110.05239868164062 14.093799591064453,-107.63313293457031 C12.253067016601562,-103.64053344726562 14.047800064086914,-98.90339660644531 18.065866470336914,-97.12439727783203 C32.863067626953125,-90.65059661865234 48.40813446044922,-87.04806518554688 64.21493530273438,-85.04073333740234 C61.515933990478516,-75.07966613769531 58.967864990234375,-65.45066833496094 57.638668060302734,-55.44313430786133 C56.67413330078125,-47.28293228149414 68.5609359741211,-44.75666809082031 71.10140228271484,-52.45513153076172 C74.79486846923828,-61.942867279052734 84.81046295166016,-83.24913024902344 84.81046295166016,-83.24913024902344 C91.29519653320312,-83.09013366699219 97.63066864013672,-83.32506561279297 104.42906951904297,-84.26053619384766 C105.76692962646484,-84.44493103027344 107.04226684570312,-85.11466979980469 107.96793365478516,-86.24073028564453 C112.4029312133789,-92.07833099365234 104.27013397216797,-97.34639739990234 96.48480224609375,-101.02946472167969 C96.48480224609375,-101.02946472167969 114.78140258789062,-128.18392944335938 115.6772689819336,-129.8287353515625 C133.1922607421875,-125.2037353515625 148.25180053710938,-123.27606964111328 142.8488006591797,-132.57606506347656 C138.83580017089844,-136.65505981445312 134.6292724609375,-140.03472900390625 129.86526489257812,-143.06173706054688 C133.04373168945312,-145.9470672607422 146.60772705078125,-155.75473022460938 149.29119873046875,-159.7270050048828z"></path></g></g><g mask="url(#__lottie_element_26)" style="display: block;"><g transform="matrix(0.8999999761581421,0,0,0.8999999761581421,282.4750061035156,250.3406982421875)" opacity="1"><g opacity="1" transform="matrix(1,0,0,1,0,0)"><path stroke-linecap="round" stroke-linejoin="round" fill-opacity="0" stroke="rgb(0,0,0)" stroke-opacity="1" stroke-width="17" d=" M-25.25,-165.2480010986328 C-32,-206.35400390625 -67.8759994506836,-219.8350067138672 -126.98100280761719,-212.80799865722656"></path></g></g></g></g></svg>