<svg xmlns="http://www.w3.org/2000/svg" viewBox="0 0 512 512" width="512" height="512" preserveAspectRatio="xMidYMid meet" style="width: 100%; height: 100%; transform: translate3d(0px, 0px, 0px);"><defs><clipPath id="__lottie_element_40"><rect width="512" height="512" x="0" y="0"></rect></clipPath><filter id="__lottie_element_44" filterUnits="objectBoundingBox" x="0%" y="0%" width="100%" height="100%"><feComponentTransfer in="SourceGraphic"><feFuncA type="table" tableValues="1.0 0.0"></feFuncA></feComponentTransfer></filter><mask id="__lottie_element_43" mask-type="alpha"><g filter="url(#__lottie_element_44)"><rect width="512" height="512" x="0" y="0" fill="#ffffff" opacity="0"></rect><g clip-path="url(#__lottie_element_45)" transform="matrix(0.8999999761581421,0,0,0.8999999761581421,24.400005340576172,32.95000457763672)" opacity="1" style="display: block;"><g transform="matrix(1,0,0,1,286.75,240.35400390625)" opacity="1" style="display: block;"><g opacity="1" transform="matrix(1,0,0,1,0,0)"><path stroke-linecap="round" stroke-linejoin="round" fill-opacity="0" stroke="rgb(0,0,0)" stroke-opacity="1" stroke-width="9" d=" M-25.25,-165.2480010986328 C-32,-206.35400390625 -67.8759994506836,-219.8350067138672 -126.98100280761719,-212.80799865722656"></path></g></g><g transform="matrix(1,0,0,1,256,256)" opacity="1" style="display: block;"><g opacity="1" transform="matrix(1,0,0,1,0,0)"><path fill="rgb(0,0,0)" fill-opacity="1" d=" M149.8090057373047,-159.34800720214844 C159.5,-170.7519989013672 147.41799926757812,-188.41799926757812 133.1750030517578,-183.16600036621094 C127.08399963378906,-180.9199981689453 107.125,-167.75 100.38800048828125,-156.3070068359375 C86.59200286865234,-160.7570037841797 72.13400268554688,-164.30099487304688 57.672000885009766,-164.78900146484375 C57.672000885009766,-164.78900146484375 54.11600112915039,-163.81900024414062 54.11600112915039,-163.81900024414062 C48.611000061035156,-162.51199340820312 47.805999755859375,-154.23199462890625 53.08300018310547,-151.947998046875 C60.0359992980957,-148.52999877929688 80.69599914550781,-140.85499572753906 87.14199829101562,-138.66200256347656 C81.18599700927734,-129.4759979248047 76.13500213623047,-119.69999694824219 71.99500274658203,-109.5270004272461 C54.792999267578125,-113.55599975585938 37.040000915527344,-114.64700317382812 19.413000106811523,-111.87999725341797 C16.981000900268555,-111.41000366210938 14.762999534606934,-109.7959976196289 13.663999557495117,-107.36799621582031 C11.85099983215332,-103.36100006103516 13.680000305175781,-98.63500213623047 17.711999893188477,-96.88400268554688 C32.547000885009766,-90.62699890136719 48.138999938964844,-87.0790023803711 63.96200180053711,-85.1240005493164 C61.40599822998047,-75.15899658203125 59.60100173950195,-65.01000213623047 58.619998931884766,-54.834999084472656 C57.959999084472656,-46.64799880981445 69.83699798583984,-44.51100158691406 72.09500122070312,-52.4010009765625 C74.68000030517578,-61.66899871826172 84.5770034790039,-83.47799682617188 84.5770034790039,-83.47799682617188 C91.06500244140625,-83.36499786376953 97.60299682617188,-83.57599639892578 104.39700317382812,-84.55999755859375 C105.73400115966797,-84.75399780273438 107.00499725341797,-85.43299865722656 107.9229965209961,-86.56600189208984 C112.31800079345703,-92.43699645996094 103.94300079345703,-97.71800231933594 96.12899780273438,-101.34700012207031 C96.12899780273438,-101.34700012207031 114.57099914550781,-129.3000030517578 115.24199676513672,-130.00999450683594 C132.7570037841797,-125.38500213623047 148.08700561523438,-123.36499786376953 142.6840057373047,-132.6649932861328 C138.67100524902344,-136.74400329589844 134.19400024414062,-140.21600341796875 129.42999267578125,-143.2429962158203 C132.45899963378906,-145.72300720214844 146.98500061035156,-155.43299865722656 149.8090057373047,-159.34800720214844z"></path></g></g></g></g></mask><clipPath id="__lottie_element_45"><path d="M0,0 L512,0 L512,512 L0,512z"></path></clipPath><linearGradient id="__lottie_element_57" spreadMethod="pad" gradientUnits="userSpaceOnUse" x1="-25.40399932861328" y1="-168.95700073242188" x2="-27.66200065612793" y2="213.04299926757812"><stop offset="0%" stop-color="rgb(0,0,0)" stop-opacity="0.800000011920929"></stop><stop offset="36%" stop-color="rgb(0,0,0)" stop-opacity="0.8999999761581421"></stop><stop offset="73%" stop-color="rgb(0,0,0)" stop-opacity="1"></stop></linearGradient><radialGradient id="__lottie_element_58" spreadMethod="pad" gradientUnits="userSpaceOnUse" cx="109.59600067138672" cy="-7.956999778747559" r="291.4099867923869" fx="109.59600067138672" fy="-7.956999778747559"><stop offset="0%" stop-color="rgb(0,0,0)" stop-opacity="0.800000011920929"></stop><stop offset="36%" stop-color="rgb(0,0,0)" stop-opacity="0.4000000059604645"></stop><stop offset="73%" stop-color="rgb(0,0,0)" stop-opacity="0"></stop></radialGradient><radialGradient id="__lottie_element_59" spreadMethod="pad" gradientUnits="userSpaceOnUse" cx="-108.40399932861328" cy="-6.956999778747559" r="270.59396421710704" fx="-108.40399932861328" fy="-6.956999778747559"><stop offset="0%" stop-color="rgb(0,0,0)" stop-opacity="0.800000011920929"></stop><stop offset="36%" stop-color="rgb(0,0,0)" stop-opacity="0.4000000059604645"></stop><stop offset="73%" stop-color="rgb(0,0,0)" stop-opacity="0"></stop></radialGradient></defs><g clip-path="url(#__lottie_element_40)"><g mask="url(#__lottie_element_43)" style="display: block;"><g transform="matrix(0.8999999761581421,0,0,0.8999999761581421,254.8000030517578,263.3500061035156)" opacity="1"><g opacity="1" transform="matrix(1,0,0,1,0,0)"><path fill="url(#__lottie_element_57)" fill-opacity="1" d=" M0.007000000216066837,231.7259979248047 C32.03099822998047,231.7259979248047 188.4010009765625,117.26699829101562 227.91900634765625,-34.444000244140625 C259.67401123046875,-156.35400390625 185.625,-204.83399963378906 126.98200225830078,-212.80799865722656 C67.91899871826172,-220.83900451660156 9.907999992370605,-179.1719970703125 0,-135.7480010986328 C-9.907999992370605,-179.1719970703125 -67.8759994506836,-219.8350067138672 -126.98100280761719,-212.80799865722656 C-185.75,-205.8209991455078 -259.6369934082031,-156.36300659179688 -227.91900634765625,-34.444000244140625 C-186.10000610351562,126.3030014038086 -33.22999954223633,231.7259979248047 0.007000000216066837,231.7259979248047z"></path><path fill="url(#__lottie_element_58)" fill-opacity="1" d=" M0.007000000216066837,231.7259979248047 C32.03099822998047,231.7259979248047 188.4010009765625,117.26699829101562 227.91900634765625,-34.444000244140625 C259.67401123046875,-156.35400390625 185.625,-204.83399963378906 126.98200225830078,-212.80799865722656 C67.91899871826172,-220.83900451660156 9.907999992370605,-179.1719970703125 0,-135.7480010986328 C-9.907999992370605,-179.1719970703125 -67.8759994506836,-219.8350067138672 -126.98100280761719,-212.80799865722656 C-185.75,-205.8209991455078 -259.6369934082031,-156.36300659179688 -227.91900634765625,-34.444000244140625 C-186.10000610351562,126.3030014038086 -33.22999954223633,231.7259979248047 0.007000000216066837,231.7259979248047z"></path><path fill="url(#__lottie_element_59)" fill-opacity="1" d=" M0.007000000216066837,231.7259979248047 C32.03099822998047,231.7259979248047 188.4010009765625,117.26699829101562 227.91900634765625,-34.444000244140625 C259.67401123046875,-156.35400390625 185.625,-204.83399963378906 126.98200225830078,-212.80799865722656 C67.91899871826172,-220.83900451660156 9.907999992370605,-179.1719970703125 0,-135.7480010986328 C-9.907999992370605,-179.1719970703125 -67.8759994506836,-219.8350067138672 -126.98100280761719,-212.80799865722656 C-185.75,-205.8209991455078 -259.6369934082031,-156.36300659179688 -227.91900634765625,-34.444000244140625 C-186.10000610351562,126.3030014038086 -33.22999954223633,231.7259979248047 0.007000000216066837,231.7259979248047z"></path><path stroke-linecap="round" stroke-linejoin="round" fill-opacity="0" stroke="rgb(0,0,0)" stroke-opacity="1" stroke-width="17" d=" M0.007000000216066837,231.7259979248047 C32.03099822998047,231.7259979248047 188.4010009765625,117.26699829101562 227.91900634765625,-34.444000244140625 C259.67401123046875,-156.35400390625 185.625,-204.83399963378906 126.98200225830078,-212.80799865722656 C67.91899871826172,-220.83900451660156 9.907999992370605,-179.1719970703125 0,-135.7480010986328 C-9.907999992370605,-179.1719970703125 -67.8759994506836,-219.8350067138672 -126.98100280761719,-212.80799865722656 C-185.75,-205.8209991455078 -259.6369934082031,-156.36300659179688 -227.91900634765625,-34.444000244140625 C-186.10000610351562,126.3030014038086 -33.22999954223633,231.7259979248047 0.007000000216066837,231.7259979248047z"></path></g></g></g></g></svg>